<svg xmlns="http://www.w3.org/2000/svg" width="35" height="35" viewBox="0 0 35 35">
  <path id="Icon_awesome-heartbeat" data-name="Icon awesome-heartbeat" d="M21.887,18.8l-3.4,7.765a1.04,1.04,0,0,1-1.975-.047l-3.889-9.867-2.051,5.6H4.142l12.475,14.57a1.116,1.116,0,0,0,1.757,0l12.482-14.57H23.4ZM32.38,5.524l-.164-.2a8.2,8.2,0,0,0-12.81,0L17.5,7.563,15.592,5.336a8.187,8.187,0,0,0-12.81,0l-.164.187a11.891,11.891,0,0,0-.5,14.226h7l2.454-6.734a1.047,1.047,0,0,1,2.01-.031l3.978,10.1,3.349-7.648a1.037,1.037,0,0,1,1.955,0l1.887,4.312h8.127a11.891,11.891,0,0,0-.5-14.226Z" transform="translate(0.001 -2.246)" fill="#ed5b5b"/>
</svg>
